<?xml version="1.0" standalone="no"?>
<!DOCTYPE svg PUBLIC "-//W3C//DTD SVG 1.1//EN" "http://www.w3.org/Graphics/SVG/1.1/DTD/svg11.dtd" >
<svg xmlns="http://www.w3.org/2000/svg">
<metadata>Generated by IcoMoon</metadata>
<defs>
<font id="icomoon" horiz-adv-x="1024">
<font-face units-per-em="1024" ascent="960" descent="-64" />
<missing-glyph horiz-adv-x="1024" />
<glyph unicode="&#x20;" horiz-adv-x="512" d="" />
<glyph unicode="&#xe900;" glyph-name="3" d="M900.423 83.499c-0.024-20.625-16.737-37.338-37.359-37.362h-771.8c-20.625 0.024-37.338 16.737-37.362 37.359v729.005c0.024 20.625 16.737 37.338 37.359 37.362h771.785c20.625-0.024 37.338-16.737 37.362-37.359v-164.852h53.902v164.85c-0.057 50.381-40.883 91.207-91.259 91.264h-771.789c-50.381-0.057-91.207-40.883-91.264-91.259v-729.008c0.057-50.381 40.883-91.207 91.259-91.264h771.789c50.381 0.057 91.207 40.883 91.264 91.259v170.217h-53.888v-170.212zM868.423 603.577h-321.564c-85.788 0-155.577-69.788-155.577-155.577s69.788-155.577 155.577-155.577h321.564c85.788 0 155.577 69.788 155.577 155.577s-69.788 155.577-155.577 155.577zM868.423 346.311h-321.564c-56.064 0-101.689 45.625-101.689 101.689s45.625 101.689 101.689 101.689h321.564c56.064 0 101.689-45.625 101.689-101.689s-45.625-101.689-101.689-101.689zM556.231 448c0-0.002 0-0.005 0-0.007 0-26.706 21.65-48.356 48.356-48.356s48.356 21.65 48.356 48.356c0 0.002 0 0.005 0 0.007v0c0 0.002 0 0.005 0 0.007 0 26.706-21.65 48.356-48.356 48.356s-48.356-21.65-48.356-48.356c0-0.002 0-0.005 0-0.007v0z" />
<glyph unicode="&#xe901;" glyph-name="2" d="M533.041 211.619l-54.509 1.931-0.894 0.102c-60.835 6.869-118.275 28.29-166.11 61.946-51.827 36.468-89.452 85.694-108.808 142.357-23.917 69.988-20.962 147.928-18.106 223.301 0.893 23.567 1.737 45.826 1.737 67.41 0 27.645 23.427 50.917 50.818 50.204 42.999-1.107 77.068-11.163 113.389-27.548 10.298 26.618 24.808 50.585 43.323 71.508 43.031 48.635 80.551 72.277 114.7 72.277 22.050 0 46.112-9.759 71.515-29.005 17.584-13.321 35.593-31.216 49.41-49.095 16.704-21.631 29.115-44.287 37.57-68.686 39.285 16.588 77.647 29.196 123.272 30.547 0.462 0.014 0.942 0.021 1.424 0.021 12.899 0 25.177-5.19 34.574-14.615 9.503-9.531 14.932-22.535 14.893-35.678-0.099-40.233-0.848-81.071-1.574-120.564-0.165-8.975-0.33-17.95-0.487-26.924-0.111-6.368-0.155-12.977-0.197-19.369-0.25-37.621-0.509-76.523-13.335-114.137-41.927-123.157-159.137-209.942-291.662-215.943l-0.942-0.041zM482.001 260.2l50.791-1.801c113.094 5.494 212.92 79.453 248.607 184.28 10.38 30.44 10.613 65.483 10.839 99.373 0.043 6.515 0.088 13.252 0.203 19.875 0.158 8.991 0.322 17.978 0.488 26.965 0.722 39.311 1.468 79.96 1.567 119.832 0.002 0.648-0.385 1.678-1.252 2.547-0.641 0.643-1.233 0.876-1.474 0.876-46.687-1.382-85.044-17.015-130.342-37.308l-26.235-11.753-6.152 28.081c-6.165 28.147-18.114 53.421-36.527 77.264-22.451 29.051-59.502 59.933-83.935 59.933-11.091 0-36.191-7.341-79.694-56.509-19.638-22.191-33.705-48.825-41.809-79.162l-7.417-27.759-25.668 12.914c-41.467 20.864-74.076 33.164-118.042 34.296 0 0 0 0 0 0-1.024 0-2.857-1.788-2.857-3.477 0-22.47-0.86-45.16-1.77-69.181-2.694-71.11-5.481-144.64 15.629-206.418 31.499-92.216 123.703-159.994 235.049-172.868zM404.729 60.124c-8.117 0-16.003 4.233-20.317 11.786-29.735 52.067-78.075 119.133-139.501 142.951-24.965 9.669-58.6 11.198-87.769 3.984-18.058-4.467-50.221-16.413-62.73-46.233-4.993-11.902-18.691-17.503-30.593-12.512-11.903 4.993-17.505 18.69-12.512 30.593 15.13 36.065 48.73 62.178 94.612 73.527 38.589 9.545 81.908 7.385 115.882-5.775 33.358-12.934 65.785-36.411 96.386-69.784 23.532-25.662 46.011-57.146 66.814-93.57 6.401-11.208 2.504-25.484-8.705-31.886-3.654-2.087-7.638-3.080-11.567-3.080zM619.269 60.124c-3.929 0-7.911 0.992-11.568 3.080-11.208 6.402-15.106 20.678-8.705 31.886 20.803 36.428 43.283 67.908 66.815 93.57 30.601 33.373 63.028 56.852 96.379 69.782 33.981 13.161 77.303 15.32 115.889 5.777 45.883-11.348 79.483-37.46 94.612-73.529 4.993-11.902-0.61-25.599-12.513-30.592s-25.6 0.608-30.593 12.512c-12.509 29.82-44.67 41.765-62.73 46.233-29.17 7.215-62.805 5.687-87.775-3.986-61.419-23.813-109.759-90.883-139.494-142.949-4.312-7.552-12.2-11.785-20.317-11.785zM512.001 20.892c-12.907 0-23.371 10.463-23.371 23.37v190.746c0 12.907 10.464 23.37 23.371 23.37s23.371-10.463 23.371-23.37v-190.746c0-12.907-10.464-23.37-23.371-23.37z" />
<glyph unicode="&#xe902;" glyph-name="4" d="M933.269 480.97c14.36 0 26 11.642 26 26.002v191.732c0 67.572-54.973 122.546-122.545 122.546h-345.026c-67.572 0-122.546-54.974-122.546-122.546v-10.852h-122.095c-32.384 0-62.537-14.521-82.728-39.84l-92.546-116.050c-20.381-25.558-31.605-57.634-31.605-90.322v-250.075h70.229c2.961-62.838 55.006-113.050 118.563-113.050s115.603 50.211 118.564 113.050h255.768c2.962-62.838 55.007-113.050 118.564-113.050 63.578 0 115.635 50.244 118.566 113.11 65.863 1.968 118.838 56.154 118.838 122.485v36.854c0 14.36-11.641 26.001-26.001 26.001s-26.002-11.641-26.002-26.001v-36.854c0-38.898-31.645-70.544-70.543-70.544h-5.582c-18.090 42.488-60.26 72.352-109.276 72.352s-91.186-29.864-109.276-72.352h-191.436v455.138c0 38.898 31.646 70.544 70.544 70.544h345.026c38.898 0 70.543-31.646 70.543-70.544v-191.732c0-14.36 11.64-26.001 26.002-26.001zM228.969 130.517c-36.777 0-66.698 29.922-66.698 66.7s29.921 66.7 66.699 66.7 66.699-29.921 66.699-66.7-29.92-66.7-66.7-66.7zM338.247 243.567c-18.090 42.488-60.26 72.352-109.276 72.352-49.015 0-91.186-29.864-109.276-72.352h-27.515v198.073c0 20.954 7.195 41.516 20.26 57.899l92.546 116.050c10.267 12.875 25.602 20.26 42.070 20.26h122.096v-392.282h-30.905zM721.866 263.915c36.777 0 66.699-29.92 66.699-66.699s-29.92-66.7-66.7-66.7-66.698 29.922-66.698 66.7 29.92 66.7 66.699 66.7zM303.583 622.282c-14.36 0-26.001-11.64-26.001-26v-100.614h-100.614c-14.36 0-26.002-11.641-26.002-26.002s11.641-26 26.002-26h152.616v152.614c0 14.36-11.64 26.001-26 26.001z" />
<glyph unicode="&#xe903;" glyph-name="5" d="M365.605 697.9l127.793 127.794 0.152-503.227c0.004-11.015 8.934-19.943 19.949-19.943 0.002 0 0.004 0 0.006 0 11.017 0.004 19.947 8.938 19.943 19.954l-0.152 503.1 127.676-127.677c3.897-3.897 9-5.843 14.106-5.843 5.104 0 10.213 1.948 14.106 5.842 7.79 7.79 7.79 20.422 0 28.213l-161.331 161.332c-3.639 3.87-8.791 6.3-14.522 6.3-0.002 0-0.004 0-0.006 0-0.006 0-0.012-0.001-0.018-0.001s-0.012 0.001-0.018 0.001c-5.292 0-10.364-2.102-14.106-5.842l-161.79-161.79c-7.789-7.79-7.789-20.422 0-28.213 7.79-7.791 20.422-7.791 28.213-0.001zM782.508 644.913h-139.795c-11.017 0-19.949-8.931-19.949-19.949s8.932-19.949 19.949-19.949h139.795c38.499 0 69.821-31.322 69.821-69.821v-425.444c0-38.499-31.322-69.821-69.821-69.821h-536.498c-38.499 0-69.821 31.322-69.821 69.821v425.445c0 38.499 31.322 69.821 69.821 69.821h143.936c11.018 0 19.949 8.931 19.949 19.949s-8.931 19.949-19.949 19.949h-143.936c-60.5 0-109.719-49.22-109.719-109.719v-425.444c0-60.5 49.22-109.719 109.719-109.719h536.498c60.5 0 109.719 49.22 109.719 109.719v425.443c0.001 60.5-49.219 109.719-109.719 109.719z" />
<glyph unicode="&#xe904;" glyph-name="-400-iconfont-2_" d="M978.862 536.394l-75.543 207.556c-12.483 34.291-45.387 57.331-81.879 57.331h-618.881c-36.492 0-69.396-23.040-81.878-57.332l-75.544-207.555c-14.032-38.552-12.211-80.259 5.127-117.441s48.118-65.386 86.669-79.417c32.902-11.976 69.23-12.325 102.294-0.981 21.713 7.45 41.467 19.717 57.723 35.602 28.396-27.906 66.722-43.885 107.537-43.885 40.804 0 79.119 15.967 107.512 43.86 28.393-27.892 66.708-43.86 107.512-43.86 40.815 0 79.141 15.978 107.537 43.885 16.256-15.885 36.010-28.153 57.723-35.602 33.065-11.343 69.392-10.994 102.294 0.981 38.551 14.031 69.331 42.236 86.669 79.417s19.159 78.889 5.127 117.441zM202.535 842.24h618.93c14.139 0 25.6 11.462 25.6 25.6s-11.461 25.6-25.6 25.6h-618.93c-14.139 0-25.6-11.462-25.6-25.6s11.461-25.6 25.6-25.6zM768.157 290.126c-14.292 4.904-28.081 11.45-41.008 19.418-8.43-5.307-18.217-10.387-28.426-14.661l-1.346-0.5c-24.755-10.159-50.953-15.311-77.865-15.311-26.905 0-53.094 5.148-77.843 15.302-11.518 4.756-21.271 9.814-30.528 15.593l0.859-0.5c-8.397-5.279-18.151-10.336-28.323-14.593l-1.346-0.499c-24.749-10.154-50.939-15.302-77.843-15.302-26.912 0-53.109 5.152-77.865 15.311-11.555 4.773-21.342 9.853-30.629 15.66l0.857-0.5c-12.927-7.968-26.717-14.515-41.008-19.418-21.337-7.321-43.657-11.033-66.341-11.033-16.516 0-32.821 1.961-48.703 5.845v-154.378c0-70.579 57.421-128 128-128h491.52c70.579 0 128 57.421 128 128v155.709c-16.103-4.556-34.596-7.175-53.7-7.175-0.043 0-0.086 0-0.129 0h0.007c-22.682 0-45.002 3.711-66.34 11.032z" />
<glyph unicode="&#xe905;" d="M900.408 60.912c0-48.744-39.536-88.224-88.248-88.224h-572.504c-48.712 0-88.192 39.488-88.192 88.224v790.608c0 48.744 39.48 88.256 88.192 88.256h572.504c48.712 0 88.248-39.512 88.248-88.256v-790.608z" />
<glyph unicode="&#xe906;" d="M239.712 939.776c-48.712 0-88.256-39.512-88.256-88.256v-790.608c0-48.744 39.536-88.224 88.256-88.224h572.504z" />
<glyph unicode="&#xe907;" d="M525.728 616.744c179.504 0 330.52 85.608 374.68 201.824v32.952c0 48.744-39.536 88.256-88.248 88.256h-572.504c-48.712 0-88.192-39.512-88.192-88.256v-34.368c44.832-115.48 195.376-200.408 374.264-200.408zM618.272 361.624h-184.68c-16.628 0-30.108 13.48-30.108 30.108s13.48 30.108 30.108 30.108v0h184.68c16.64 0 30.104-13.464 30.104-30.104s-13.464-30.112-30.104-30.112zM618.272 261.792h-184.68c-16.628 0-30.108 13.48-30.108 30.108s13.48 30.108 30.108 30.108v0h184.68c0.005 0 0.010 0 0.016 0 16.617 0 30.088-13.471 30.088-30.088 0-0.006 0-0.011 0-0.017v0.001c0-0.007 0-0.016 0-0.024 0-16.617-13.471-30.088-30.088-30.088-0.006 0-0.011 0-0.017 0h0.001z" />
<glyph unicode="&#xe908;" d="M525.936 97.92c-0.002 0-0.005 0-0.008 0-16.622 0-30.096 13.474-30.096 30.096 0 0.006 0 0.011 0 0.017v-0.001 262.288c0 0.002 0 0.005 0 0.008 0 16.622 13.474 30.096 30.096 30.096 0.003 0 0.006 0 0.008 0v0c0.007 0 0.016 0 0.024 0 16.613 0 30.080-13.467 30.080-30.080 0-0.008 0-0.017 0-0.025v0.001-262.288c0-0.005 0-0.010 0-0.016 0-16.622-13.474-30.096-30.096-30.096-0.003 0-0.006 0-0.008 0v0z" />
<glyph unicode="&#xe909;" d="M503.152 367.208c-0.011 0-0.025 0-0.038 0-10.925 0-20.49 5.824-25.759 14.538l-0.075 0.135-46.48 77.792c-2.673 4.407-4.255 9.734-4.255 15.43 0 10.925 5.82 20.491 14.529 25.767l0.134 0.075c4.409 2.682 9.741 4.27 15.444 4.27 10.925 0 20.489-5.827 25.753-14.543l0.076-0.135 46.48-77.792c2.681-4.411 4.268-9.744 4.268-15.448 0-16.613-13.464-30.081-30.076-30.088h-0.001z" />
<glyph unicode="&#xe90a;" d="M548.776 367.208c-16.611 0.015-30.070 13.483-30.070 30.096 0 5.7 1.585 11.031 4.338 15.574l-0.075-0.134 46.48 77.792c5.34 8.851 14.904 14.678 25.828 14.678 5.702 0 11.034-1.588 15.577-4.345l-0.134 0.075c8.846-5.346 14.669-14.912 14.669-25.837 0-5.699-1.584-11.027-4.336-15.569l0.075 0.134-46.48-77.792c-5.346-8.848-14.912-14.672-25.839-14.672-0.012 0-0.023 0-0.035 0h0.002z" />
<glyph unicode="&#xe90b;" glyph-name="7" d="M513.784 829.791c-152.645 0-281.283-105.779-322.692-250.27-37.023-22.296-58.671-65.241-58.671-115.509 0-72.899 44.443-132.011 117.343-132.011 16.222 0 29.335 13.113 29.335 29.335v205.35c0 13.494-9.578 24.086-22.002 27.502 42.833 105.137 141.707 178.764 256.687 178.764s213.855-73.628 256.687-178.764c-12.423-3.417-22.002-14.008-22.002-27.502v-205.35c0-16.222 13.113-29.335 29.335-29.335 6.825 0 12.938 0.834 19.251 1.834-9.488-54.74-32.477-95.532-55.921-123.76-14.622-17.606-29.617-30.365-41.254-38.503-5.819-4.070-10.345-6.597-13.751-8.251-1.704-0.827-3.097-1.581-3.667-1.834h-55.004c-10.565 30.632-44.185 53.171-84.34 53.171-48.605 0-88.007-32.835-88.007-73.339s39.402-73.339 88.007-73.339c40.155 0 73.775 22.54 84.34 53.171h57.754c9.916 0 12.437 2.638 18.335 5.5s12.826 6.782 20.168 11.917c14.683 10.27 32.403 25.247 49.503 45.837 30.928 37.238 59.728 92.562 66.922 166.847 34.59 22.958 55.004 64.293 55.004 112.758 0 50.269-21.648 93.214-58.671 115.509-41.406 144.492-170.046 250.271-322.69 250.271z" />
<glyph unicode="&#xe90c;" glyph-name="8" d="M512.099 129.42c-8.065 0-16.132 3.030-22.351 9.1l-69.882 68.204-276.454 2.197c-24.172 0.105-43.805 19.803-43.805 43.999v513.296c0 24.262 19.738 44 44 44h740.337c24.262 0 44-19.738 44-44v-513.296c0-24.199-19.639-43.898-43.815-44l-280.855-2.197-68.649-68.032c-6.234-6.178-14.38-9.271-22.526-9.271zM163.608 272.762l269.646-2.143c8.608-0.070 16.394-3.529 22.102-9.105l-0.006 0.006 56.578-55.219 55.546 55.048c5.723 5.672 13.58 9.199 22.261 9.27h0.014l274.195 2.146v473.451h-700.336v-473.454zM883.945 272.92v0zM143.608 272.92v0zM267 527c0-29.823 24.177-54 54-54s54 24.177 54 54v0c0 29.823-24.177 54-54 54s-54-24.177-54-54v0zM459 527.4c0-29.823 24.177-54 54-54s54 24.177 54 54v0c0 29.823-24.177 54-54 54s-54-24.177-54-54v0zM652 526.9c0-29.823 24.177-54 54-54s54 24.177 54 54v0c0 29.823-24.177 54-54 54s-54-24.177-54-54v0z" />
<glyph unicode="&#xe90d;" glyph-name="9" d="M917.3 527.6c-7.2 38.2-33.7 63.5-68.6 63.5h-1.5c-35.3 0-64.1 28.9-64.1 64.4 0 8 3.9 19.7 5.6 23.8 15 33.8 3.5 75.3-27.7 97.2l-97.8 54.7-4 1.9c-9.8 4.3-20.7 6.3-31.5 6.3-22.6 0-45.4-8.8-60.7-24.7-14.6-15.1-40.8-32.6-52.8-32.6-12.1 0-38.5 17.9-53 33.2-15.3 16.2-38.1 25.3-60.9 25.3-10.7 0-21.5-2-31.5-6.3l-102.1-55.9-4-2.6c-30.4-21.2-41.9-62.6-27-96.4 1.9-4.4 5.8-16 5.8-24 0-35.5-28.8-64.4-66.6-64.4h-1.6c-32.4 0-58.9-25.3-66.1-64.1-2-10.9-8.4-48.9-8.4-80.4 0-31.6 6.4-69.5 8.5-81.1 7.2-38 33.8-63.5 66.2-63.5h3.9c35.3 0 64.1-28.9 64.1-64.3 0-7.7-3.6-19-5.7-23.8-14.9-33.8-3.5-75.2 27.1-96.8l96.4-54.4 3.9-1.9c9.8-4.4 20.6-6.4 31.5-6.4 23 0 46.3 9.3 61.5 26 14.3 15.5 42 34.7 53.9 34.7 12.4 0 39.4-19.1 54.2-35.4 15.3-16.9 37.6-26.7 61.4-26.7 11.2 0 21.8 2.1 31.7 6.4l100.3 55.3 4 2.6c30.3 21.2 41.8 62.6 26.9 96.3-1.8 4.4-5.7 16-5.7 24 0 35.5 28.8 64.3 66.8 64.3 32.6 0.4 60.1 24.9 67.5 64.1 2 10.9 8.4 48.9 8.4 80.4 0.2 31.7-6.3 69.8-8.3 81.3zM859.2 376.8c-1.4-7.6-5.4-15.7-10.2-15.7-69.8 0-125-54.2-125-123.4 0-20.5 7.9-41 10.3-46.8 4-9 0.8-20.2-6.3-25.1l-0.2-0.1-95.5-52.7c-1.9-0.6-4-0.9-6.4-0.9-6.9 0-13.4 2.7-17.4 7.1-5.4 5.9-51.5 54.9-98.1 54.9-47.4 0-96.9-53.2-97.4-53.7-3.8-4.2-11.2-7-18.1-7-2.6 0-5.1 0.4-7.1 1.2l-1 0.5-91.3 51.5c-6.4 5.6-9 15.9-5.6 23.4 2.1 5 10.7 26.4 10.7 47.7 0 68-55.3 123.4-123.2 123.4h-3.9c-1.4 0.3-6.1 4.8-8.2 15.4-1.7 9.3-7.4 43.7-7.4 70.1 0 21 3.8 49.8 7.4 69.9 1.9 10.1 6.3 14.9 7.7 15.6h1.9c70.4 0.1 125.6 54.3 125.6 123.5 0 21.3-8.6 42.8-10.4 46.9-3.8 8.6-0.9 19.4 5.8 24.6l1 0.6 96.8 53.1c1.9 0.6 4.2 0.9 6.5 0.9 6.9 0 14.1-2.8 18-6.9 2-2.1 49.5-51.6 95.9-51.6 45.8 0 93.2 48.5 95.2 50.6 3.9 4 11.3 6.8 18.2 6.8 2.7 0 5.2-0.4 7.2-1.2l0.8-0.4 92.9-51.9c6.7-5.9 9.5-16.1 6.1-23.8-2.1-4.9-10.7-26.2-10.7-47.7 0-68.1 55.2-123.4 123.2-123.4 8.4 0 11.1-10.8 12-15.4 3.6-19.7 7.5-48.8 7.5-70.1 0.2-21.6-3.8-51.1-7.3-69.9zM512.3 604.3c-87 0-157.6-70.5-157.6-157.5s70.5-157.6 157.6-157.6c87 0 157.5 70.5 157.5 157.6 0 87-70.5 157.5-157.5 157.5zM512.3 348.3c-54.3 0-98.5 44.1-98.5 98.4s44.2 98.4 98.5 98.4 98.4-44.1 98.4-98.4c0-54.2-44.1-98.4-98.4-98.4z" />
<glyph unicode="&#xe90e;" glyph-name="10" d="M512 960c-282.77 0-512-229.23-512-512s229.23-512 512-512c282.77 0 512 229.23 512 512v0c0 282.77-229.23 512-512 512v0zM512 0c-247.424 0-448 200.576-448 448s200.576 448 448 448c247.424 0 448-200.576 448-448v0c0-247.424-200.576-448-448-448v0zM544 463.68v196.48c0 17.673-14.327 32-32 32s-32-14.327-32-32v0-209.92c0.11-9.43 4.282-17.864 10.845-23.65l0.035-0.030c1.712-2.823 3.728-5.246 6.051-7.334l0.029-0.026 250.24-202.56c5.229-3.871 11.805-6.196 18.925-6.196 17.673 0 32 14.327 32 32 0 9.434-4.082 17.914-10.576 23.771l-0.028 0.025z" />
<glyph unicode="&#xe90f;" glyph-name="11" horiz-adv-x="1025" d="M1024 576c-12.175 31.845-38.788 55.716-71.612 63.851l-0.708 0.149-215.68 58.24-145.28 211.84c-16.393 27.83-45.043 46.928-78.333 49.892l-0.387 0.028c-34.547-1.77-63.943-22.179-78.477-51.302l-0.243-0.538-120.32-192-161.28-49.28-78.72-26.88c-31.080-7.064-56.078-28.269-68.237-56.33l-0.243-0.63c-2.173-8.366-3.421-17.97-3.421-27.866 0-26.194 8.742-50.345 23.468-69.697l-0.206 0.283 140.8-178.56-7.68-256c-1.445-6.921-2.272-14.875-2.272-23.021 0-24.607 7.547-47.451 20.453-66.344l-0.261 0.405c11.762-13.018 28.705-21.164 47.551-21.164 0.833 0 1.663 0.016 2.488 0.047l-0.119-0.004c22.155 1.035 42.905 5.877 61.998 13.886l-1.198-0.446 208 84.48 236.16-87.68c12.731-4.536 27.422-7.32 42.714-7.677l0.166-0.003c29.44 0 78.72 13.44 82.56 103.68l-12.8 230.4 152.96 205.44c18.452 19.179 29.816 45.291 29.816 74.057 0 6.624-0.603 13.107-1.756 19.398l0.1-0.656z" />
<glyph unicode="&#xe910;" glyph-name="12" d="M512 853.333c-188.513 0-341.333-152.82-341.333-341.333v0c0-231.253 315.733-456.107 328.96-465.493 3.438-2.473 7.732-3.955 12.373-3.955s8.936 1.482 12.437 3.998l-0.064-0.044c52.425 38.375 98.663 77.982 141.705 120.798l-0.052-0.051c3.876 3.876 6.274 9.232 6.274 15.147 0 11.83-9.59 21.421-21.421 21.421-5.915 0-11.27-2.398-15.147-6.274v0c-37.83-37.407-78.189-72.49-120.708-104.882l-3.025-2.211c-57.6 42.667-298.667 235.947-298.667 421.547 0 164.949 133.718 298.667 298.667 298.667s298.667-133.718 298.667-298.667v0c0-73.387-37.547-156.16-111.787-245.333-3.069-3.673-4.933-8.445-4.933-13.653 0-11.797 9.563-21.36 21.36-21.36 6.589 0 12.481 2.983 16.399 7.673l0.028 0.034c78.933 97.28 121.6 189.013 121.6 272.64 0 188.513-152.82 341.333-341.333 341.333v0zM380.587 561.067c-1.284 0.275-2.758 0.432-4.27 0.432-10.274 0-18.851-7.262-20.879-16.933l-0.024-0.139c-2.088-9.584-3.327-20.622-3.413-31.935v-0.065c-0.004-0.395-0.006-0.863-0.006-1.331 0-88.366 71.634-160 160-160s160 71.634 160 160c0 88.366-71.634 160-160 160-19.753 0-38.67-3.58-56.138-10.125l1.104 0.363c-7.981-3.207-13.513-10.881-13.513-19.848 0-11.782 9.551-21.333 21.333-21.333 2.391 0 4.69 0.393 6.836 1.119l-0.15-0.044c11.985 4.878 25.876 7.829 40.421 8.105l0.112 0.002c0.030 0 0.066 0 0.101 0 64.801 0 117.333-52.532 117.333-117.333s-52.532-117.333-117.333-117.333c-64.801 0-117.333 52.532-117.333 117.333 0 8.46 0.895 16.711 2.596 24.663l-0.138-0.769c0.275 1.284 0.432 2.758 0.432 4.27 0 10.274-7.262 18.851-16.933 20.879l-0.139 0.024z" />
<glyph unicode="&#xe911;" d="M478.589 665.623h252.84v-397.319h-361.199z" />
<glyph unicode="&#xe912;" d="M695.309 116.6h-75.852c-10.836 0-18.060 7.224-18.060 18.060s7.224 18.060 18.060 18.060h75.852c7.224 0 12.642 5.418 12.642 12.642v572.501c0 7.224-5.418 12.642-12.642 12.642h-372.035c-7.224 0-12.642-5.418-12.642-12.642v-572.501c0-7.224 5.418-12.642 12.642-12.642h229.362c10.836 0 18.060-7.224 18.060-18.060s-7.224-18.060-18.060-18.060h-229.362c-27.090 0-48.762 21.672-48.762 48.762v572.501c0 27.090 21.672 48.762 48.762 48.762h370.229c27.090 0 48.762-21.672 48.762-48.762v-572.501c0-27.090-21.672-48.762-46.956-48.762z" />
<glyph unicode="&#xe913;" d="M724.205 643.951h-429.827c-10.836 0-18.060 7.224-18.060 18.060s7.224 18.060 18.060 18.060h429.827c10.836 0 18.060-7.224 18.060-18.060s-9.030-18.060-18.060-18.060zM715.175 252.049h-420.797c-10.836 0-18.060 7.224-18.060 18.060s7.224 18.060 18.060 18.060h420.797c10.836 0 18.060-7.224 18.060-18.060s-9.030-18.060-18.060-18.060z" />
<glyph unicode="&#xe914;" d="M547.217 696.325h-77.658c-10.836 0-18.060 7.224-18.060 18.060s7.224 18.060 18.060 18.060h77.658c10.836 0 18.060-7.224 18.060-18.060s-7.224-18.060-18.060-18.060z" />
<glyph unicode="&#xe915;" glyph-name="14" d="M848.315 442.702c0-7.178 5.821-12.999 13.013-12.999s12.999 5.821 12.999 12.999c0 147.011-98.941 276.718-240.565 315.443-6.845 1.849-14.068-2.181-15.975-9.1-1.892-6.948 2.182-14.097 9.115-15.989 130.371-35.648 221.413-155.028 221.413-290.354zM547.33 743.702c5.633 0 11.237-0.159 16.813-0.463 0.246-0.014 0.49-0.014 0.722-0.014 6.876 0 12.609 5.359 12.971 12.292 0.404 7.164-5.085 13.303-12.25 13.679-6.066 0.333-12.132 0.506-18.257 0.506-7.164 0-13-5.806-13-13 0-7.178 5.836-12.999 13-12.999zM536.41 873.38c-233.705 0-423.831-190.134-423.831-423.845 0-16.8 1.017-33.772 2.989-50.501l-30.592-11.045c-9.359-3.366-15.975-11.137-17.68-20.785-1.993-11.007 2.398-22.561 11.598-30.347l88.787-72.378c5.589-4.709 11.829-7.193 18.055-7.193 12.538 0 22.388 9.591 24.988 24.121l23.053 110.729c1.748 9.736-0.924 19.99-7.15 27.43-7.554 9.042-19.63 12.45-30.506 8.55l-23.174-8.367c-0.8 9.925-1.209 19.891-1.209 29.786 0 201.089 163.593 364.682 364.668 364.682s364.667-163.593 364.667-364.682c0-201.091-163.593-364.684-364.667-364.684-88.166 0-173.27 31.892-239.612 89.799-12.321 10.739-30.997 9.468-41.743-2.838s-9.475-30.989 2.831-41.736c77.132-67.316 176.043-104.387 278.525-104.387 233.704 0 423.831 190.133 423.831 423.845s-190.127 423.845-423.831 423.845zM406.385 362.337c-8.118 0-14.213-1.835-18.257-5.446-4.058-3.64-6.080-10.153-6.080-19.529 0-17.073 8.536-25.608 25.609-25.608h100.531v-84.527c0-11.527 1.819-19.659 5.432-24.337 3.626-4.709 10.789-7.050 21.464-7.050s17.708 2.34 21.146 7.050c3.38 4.679 5.113 12.812 5.113 24.337v84.526h101.802c17.086 0 25.623 8.304 25.623 24.959 0 17.073-8.536 25.625-25.623 25.625h-101.802v40.326h101.802c17.086 0 25.623 8.321 25.623 24.975 0 17.072-8.536 25.623-25.623 25.623h-74.272l92.846 155.591c4.694 8.118 7.049 15.051 7.049 20.813 0 5.778-3.437 10.761-10.255 15.051-6.413 4.275-12.913 6.399-19.528 6.399s-13.13-5.345-19.513-16.003l-104.387-176.102-104.374 176.103c-5.979 10.226-12.71 15.354-20.178 15.354s-13.967-2.123-19.514-6.399c-5.546-3.827-8.334-8.955-8.334-15.368 0-6.399 1.921-13.014 5.763-19.846l92.846-155.591h-74.907c-8.118 0-14.213-1.835-18.257-5.445-4.058-3.64-6.080-10.154-6.080-19.528 0-17.088 8.536-25.625 25.609-25.625h100.531v-40.326h-101.803z" />
<glyph unicode="&#xe916;" glyph-name="15" d="M730.112 669.504c-37.824-35.104-97.248-62.112-145.856-62.112-24.32 0-43.232 5.376-56.736 18.88-43.2 40.544-10.816 137.792 45.92 191.808 32.416 29.728 72.96 45.92 110.72 45.92 27.040 0 51.36-8.096 70.272-24.32 43.2-43.2 32.416-118.848-24.32-170.176zM711.232 793.76c-8.128 8.096-21.632 8.096-27.040 8.096-24.32 0-48.64-10.784-70.24-29.696-37.824-35.136-51.328-89.152-45.92-99.968 0 0 5.408-2.688 13.504-2.688 32.416 0 78.336 18.912 105.344 45.92 21.632 21.6 29.728 43.2 29.728 59.424 2.688 10.816-2.72 16.224-5.408 18.912zM522.112 626.272c-13.504-13.504-35.104-18.88-56.736-18.88-48.64 0-108.032 24.32-145.856 62.112-56.736 51.328-67.52 126.976-24.32 170.176 18.912 16.224 43.2 24.32 70.24 24.32 37.824 0 78.336-16.192 110.72-45.92 56.768-54.016 91.872-151.264 45.952-191.808zM435.68 772.16c-18.912 18.88-45.92 29.696-70.24 29.696-8.096 0-18.912 0-27.008-8.096-2.72-2.688-8.128-8.096-8.128-21.6s8.128-37.824 29.728-59.424c27.008-24.32 72.96-45.92 105.344-45.92 10.816 0 16.224 2.688 16.224 2.688 5.408 13.504-8.128 67.52-45.92 102.656zM554.528 364.256v275.52h272.832c32.416 0 59.424-27.008 59.424-62.112v-213.408h-332.224zM827.36 32h-272.832v272.832h334.944v-213.408c0-32.416-27.008-59.424-62.112-59.424zM160.16 364.256v213.408c0 32.416 26.976 62.144 62.080 62.144h272.864v-272.832h-334.976v-2.72zM222.208 32c-32.384 0-62.080 27.008-62.080 62.144v213.376h334.944v-272.832h-272.8v-2.688z" />
<glyph unicode="&#xe917;" glyph-name="1" d="M876.089 379.733c-45.511 22.756-59.164 40.96-59.164 77.369 0 34.133 13.653 52.338 59.164 77.369 25.031 15.929 27.307 29.582 27.307 52.338v129.707c0 40.96-34.133 75.093-75.093 75.093h-646.258c-40.96 0-75.093-34.133-75.093-75.093v-129.707c0-20.48 2.276-38.684 27.307-52.338 18.204-9.102 59.164-31.858 59.164-77.369 0-50.062-29.582-65.991-56.889-75.093h-2.276c-25.031-15.929-27.307-40.96-27.307-52.338v-129.707c0-40.96 34.133-75.093 75.093-75.093h646.258c40.96 0 75.093 34.133 75.093 75.093v129.707c0 25.031-9.102 34.133-27.307 50.062zM625.778 425.244c13.653 0 25.031-11.378 25.031-25.031s-11.378-25.031-25.031-25.031h-95.573v-95.573c0-13.653-11.378-25.031-25.031-25.031s-25.031 11.378-25.031 25.031v95.573h-95.573c-13.653 0-25.031 11.378-25.031 25.031s11.378 25.031 25.031 25.031h95.573v59.164h-102.4c-13.653 0-25.031 11.378-25.031 25.031s11.378 25.031 25.031 25.031h75.093l-79.644 79.644c-9.102 9.102-9.102 25.031 0 34.133s25.031 9.102 34.133 0l97.849-97.849 97.849 97.849c9.102 9.102 25.031 9.102 34.133 0s9.102-25.031 0-34.133l-79.644-79.644h72.818c13.653 0 25.031-11.378 25.031-25.031s-11.378-25.031-25.031-25.031h-102.4v-59.164h97.849z" />
<glyph unicode="&#xe918;" glyph-name="uniE918" d="M742.4 742.4c0 12.8 6.4 25.6 12.8 38.4 12.8 6.4 25.6 12.8 38.4 12.8s25.6-6.4 38.4-12.8c12.8-6.4 12.8-25.6 12.8-38.4s-6.4-25.6-12.8-38.4c-12.8-6.4-25.6-12.8-38.4-12.8s-25.6 6.4-38.4 12.8c-6.4 12.8-12.8 25.6-12.8 38.4zM601.6 832c0 12.8 6.4 32 19.2 44.8s25.6 19.2 44.8 19.2c19.2 0 32-6.4 44.8-19.2s19.2-25.6 19.2-44.8c0-19.2-6.4-32-19.2-44.8s-25.6-19.2-44.8-19.2c-19.2 0-32 6.4-44.8 19.2s-19.2 25.6-19.2 44.8zM416 857.6c0 19.2 6.4 38.4 19.2 51.2s32 19.2 51.2 19.2c19.2 0 38.4-6.4 51.2-19.2s19.2-32 19.2-51.2c0-19.2-6.4-38.4-19.2-51.2s-32-19.2-51.2-19.2c-19.2 0-38.4 6.4-51.2 19.2s-19.2 32-19.2 51.2zM179.2 844.8c0 25.6 12.8 44.8 25.6 64 19.2 19.2 44.8 25.6 64 25.6 25.6 0 51.2-12.8 64-25.6 19.2-19.2 25.6-38.4 25.6-64s-12.8-44.8-25.6-64c-19.2-19.2-44.8-25.6-64-25.6-25.6 0-51.2 12.8-64 25.6-19.2 19.2-25.6 38.4-25.6 64zM614.4 729.6h-249.6c-83.2-6.4-147.2-70.4-147.2-153.6 0-57.6 32-102.4 76.8-134.4 0 0 89.6-44.8 0-268.8-6.4-19.2-12.8-38.4-12.8-57.6 0-83.2 70.4-153.6 160-153.6 38.4 0 76.8 12.8 102.4 38.4 160 128 262.4 320 262.4 537.6v6.4c0 96-83.2 185.6-192 185.6z" />
</font>
</defs>
</svg>
